<?xml version="1.0"?>
<svg xmlns="http://www.w3.org/2000/svg" xmlns:xlink="http://www.w3.org/1999/xlink" version="1.1" id="Capa_1" x="0px" y="0px" width="512px" height="512px" viewBox="0 0 70.075 70.075" style="enable-background:new 0 0 70.075 70.075;" xml:space="preserve" class=""><g><g>
	<path d="M68.911,1.191c-2.402-2.403-7.612-0.972-11.846,3.266c-1.768,1.764-3.011,3.686-3.728,5.515l-14.683,0.747   c-2.732,0.138-6.546,1.832-8.478,3.764L1.449,43.213c-1.932,1.932-1.932,5.096,0,7.027l18.354,18.356   c1.93,1.932,5.099,1.932,7.03,0l28.725-28.726c1.933-1.93,3.63-5.748,3.771-8.476l0.739-14.612c1.846-0.715,3.794-1.97,5.575-3.747   C69.882,8.807,71.315,3.6,68.911,1.191z M38.91,50.579c-1.9,2.445-4.447,3.654-7.661,3.654c-2.773,0-5.104-0.997-6.977-2.997   c-1.785-1.885-2.925-4.505-3.428-7.865h-4.877l0.813-2.756h3.787c-0.022-0.524-0.036-1.067-0.036-1.624   c0-0.479,0.014-0.949,0.036-1.423h-4.6l0.813-2.749h4.106c0.437-2.36,1.25-4.404,2.453-6.131c2.013-2.916,4.792-4.369,8.332-4.369   c3.025,0,5.365,0.941,7.035,2.842c1.675,1.897,2.596,4.048,2.776,6.459h-3.157c-0.347-1.83-1.055-3.274-2.125-4.347   c-1.072-1.07-2.564-1.608-4.486-1.608c-2.362,0-4.261,0.989-5.705,2.964c-0.801,1.085-1.373,2.481-1.723,4.198H35.08l-0.813,2.749   H23.896c-0.04,0.654-0.051,1.354-0.051,2.087c0,0.338,0.002,0.662,0.016,0.968h11.224l-0.815,2.753H24.15   c0.313,1.69,0.86,3.152,1.646,4.387c1.304,2.064,3.252,3.093,5.842,3.093c2.385,0,4.203-1.09,5.449-3.264   c0.663-1.146,1.153-2.66,1.475-4.528h3.155C41.428,46.053,40.491,48.56,38.91,50.579z M56.882,17.958   c-1.323,1.322-3.463,1.322-4.788,0c-1.316-1.32-1.316-3.466,0-4.791c0.174-0.173,0.365-0.323,0.562-0.447   c-0.096,1.441,0.26,2.705,1.136,3.585c0.867,0.862,2.094,1.215,3.509,1.135C57.181,17.624,57.04,17.797,56.882,17.958z    M57.815,16.139c-1.312,0.205-2.434-0.002-3.143-0.715c-0.717-0.722-0.917-1.861-0.698-3.198c1.024-0.152,2.112,0.151,2.906,0.938   C57.688,13.978,57.994,15.092,57.815,16.139z M60.142,15.408l0.048-0.83c0.142-2.733-1.987-4.852-4.71-4.713l-0.763,0.042   c0.696-1.524,1.777-3.131,3.229-4.567C61.563,1.717,66.18,0.23,68.03,2.08c1.851,1.85,0.356,6.473-3.26,10.088   C63.306,13.623,61.682,14.716,60.142,15.408z" data-original="#5278A7" class="active-path" data-old_color="#2B5487" fill="#005FA5"/>
</g></g> </svg>
